<?xml version="1.0" encoding="UTF-8" standalone="no"?>
<!-- Created with Inkscape (http://www.inkscape.org/) -->

<svg
   width="128"
   height="90"
   viewBox="0 0 33.866667 23.812501"
   version="1.1"
   id="svg5"
   xml:space="preserve"
   inkscape:version="1.2.2 (b0a84865, 2022-12-01)"
   sodipodi:docname="logo.svg"
   xmlns:inkscape="http://www.inkscape.org/namespaces/inkscape"
   xmlns:sodipodi="http://sodipodi.sourceforge.net/DTD/sodipodi-0.dtd"
   xmlns="http://www.w3.org/2000/svg"
   xmlns:svg="http://www.w3.org/2000/svg"><sodipodi:namedview
     id="namedview7"
     pagecolor="#505050"
     bordercolor="#ffffff"
     borderopacity="1"
     inkscape:showpageshadow="0"
     inkscape:pageopacity="0"
     inkscape:pagecheckerboard="1"
     inkscape:deskcolor="#505050"
     inkscape:document-units="mm"
     showgrid="false"
     inkscape:zoom="2.0509168"
     inkscape:cx="128.47913"
     inkscape:cy="75.332164"
     inkscape:window-width="1233"
     inkscape:window-height="832"
     inkscape:window-x="279"
     inkscape:window-y="38"
     inkscape:window-maximized="0"
     inkscape:current-layer="layer1" /><defs
     id="defs2" /><g
     inkscape:label="Layer 1"
     inkscape:groupmode="layer"
     id="layer1"><g
       aria-label="mini"
       id="text233"
       style="font-style:italic;font-weight:900;font-stretch:condensed;font-size:16.9333px;font-family:'Avenir Next Condensed';-inkscape-font-specification:'Avenir Next Condensed,  Heavy Italic Condensed';fill:#ffffff;stroke-width:0.264583"
       transform="matrix(1.0378388,0,0,1.0378388,-66.789755,-133.71342)"><path
         d="m 72.264588,136.85023 v 3.00136 q 0,0.71107 -0.322461,1.0666 -0.32246,0.35553 -0.851626,0.35553 -0.512629,0 -0.835089,-0.35553 -0.314192,-0.35553 -0.314192,-1.0666 v -3.59667 q 0,-0.85163 -0.05788,-1.32292 -0.05788,-0.47129 -0.314192,-0.76894 -0.256314,-0.30593 -0.810285,-0.30593 -1.10794,0 -1.463473,0.76068 -0.347265,0.76068 -0.347265,2.18281 v 3.05097 q 0,0.7028 -0.322461,1.0666 -0.314192,0.35553 -0.835089,0.35553 -0.512629,0 -0.843358,-0.35553 -0.32246,-0.3638 -0.32246,-1.0666 v -6.45747 q 0,-0.63666 0.289387,-0.96739 0.297656,-0.33072 0.777212,-0.33072 0.46302,0 0.768944,0.31419 0.314192,0.30592 0.314192,0.85162 v 0.21498 q 0.587043,-0.7028 1.256769,-1.03353 0.669725,-0.33073 1.488278,-0.33073 0.851626,0 1.463474,0.339 0.611847,0.339 1.008722,1.02526 0.570506,-0.69453 1.223695,-1.02526 0.653189,-0.339 1.446937,-0.339 0.92604,0 1.595765,0.3638 0.669726,0.3638 1.000454,1.0418 0.289388,0.61185 0.289388,1.92649 v 4.40696 q 0,0.71107 -0.322461,1.0666 -0.32246,0.35553 -0.851626,0.35553 -0.512629,0 -0.843357,-0.35553 -0.322461,-0.3638 -0.322461,-1.0666 v -3.79511 q 0,-0.7276 -0.06615,-1.16582 -0.05788,-0.43821 -0.330729,-0.73587 -0.272851,-0.29766 -0.826821,-0.29766 -0.446484,0 -0.851626,0.26459 -0.396874,0.26458 -0.620116,0.71106 -0.248046,0.57051 -0.248046,2.01745 z"
         style="font-style:normal;font-weight:normal;font-stretch:normal;font-family:'Arial Rounded MT Bold';-inkscape-font-specification:'Arial Rounded MT Bold, '"
         id="path325" /><path
         d="m 81.996274,133.37758 v 6.52362 q 0,0.67799 -0.322461,1.02526 -0.32246,0.34726 -0.818553,0.34726 -0.496092,0 -0.810284,-0.35553 -0.305924,-0.35553 -0.305924,-1.01699 v -6.45748 q 0,-0.66972 0.305924,-1.00872 0.314192,-0.33899 0.810284,-0.33899 0.496093,0 0.818553,0.33899 0.322461,0.339 0.322461,0.94258 z m -1.116209,-2.33164 q -0.471288,0 -0.810285,-0.28938 -0.330728,-0.28939 -0.330728,-0.81856 0,-0.47955 0.338996,-0.78548 0.347265,-0.31419 0.802017,-0.31419 0.438215,0 0.777212,0.28112 0.338997,0.28112 0.338997,0.81855 0,0.5209 -0.330729,0.81856 -0.330728,0.28938 -0.78548,0.28938 z"
         style="font-style:normal;font-weight:normal;font-stretch:normal;font-family:'Arial Rounded MT Bold';-inkscape-font-specification:'Arial Rounded MT Bold, '"
         id="path327" /><path
         d="m 86.378427,133.34451 v 0.27285 q 0.595311,-0.78548 1.298109,-1.14928 0.711067,-0.37207 1.628838,-0.37207 0.892967,0 1.595765,0.3886 0.702799,0.38861 1.050064,1.09967 0.223241,0.41341 0.289387,0.89297 0.06615,0.47956 0.06615,1.2237 v 4.20025 q 0,0.67799 -0.314192,1.02526 -0.305924,0.34726 -0.802017,0.34726 -0.504361,0 -0.818553,-0.35553 -0.314192,-0.35553 -0.314192,-1.01699 v -3.76204 q 0,-1.11621 -0.314192,-1.70325 -0.305924,-0.59531 -1.231964,-0.59531 -0.60358,0 -1.099672,0.3638 -0.496093,0.35553 -0.727603,0.98392 -0.165364,0.50436 -0.165364,1.88515 v 2.82773 q 0,0.68626 -0.322461,1.03353 -0.314192,0.33899 -0.818553,0.33899 -0.487824,0 -0.802016,-0.35553 -0.314192,-0.35553 -0.314192,-1.01699 v -6.52362 q 0,-0.64492 0.281119,-0.95911 0.281119,-0.32246 0.768944,-0.32246 0.297655,0 0.537433,0.14056 0.239779,0.14055 0.380338,0.42167 0.148828,0.28112 0.148828,0.68627 z"
         style="font-style:normal;font-weight:normal;font-stretch:normal;font-family:'Arial Rounded MT Bold';-inkscape-font-specification:'Arial Rounded MT Bold, '"
         id="path329" /><path
         d="m 96.812912,133.37758 v 6.52362 q 0,0.67799 -0.322461,1.02526 -0.32246,0.34726 -0.818553,0.34726 -0.496092,0 -0.810285,-0.35553 -0.305923,-0.35553 -0.305923,-1.01699 v -6.45748 q 0,-0.66972 0.305923,-1.00872 0.314193,-0.33899 0.810285,-0.33899 0.496093,0 0.818553,0.33899 0.322461,0.339 0.322461,0.94258 z m -1.116209,-2.33164 q -0.471288,0 -0.810285,-0.28938 -0.330728,-0.28939 -0.330728,-0.81856 0,-0.47955 0.338996,-0.78548 0.347265,-0.31419 0.802017,-0.31419 0.438215,0 0.777212,0.28112 0.338997,0.28112 0.338997,0.81855 0,0.5209 -0.330729,0.81856 -0.330728,0.28938 -0.78548,0.28938 z"
         style="font-style:normal;font-weight:normal;font-stretch:normal;font-family:'Arial Rounded MT Bold';-inkscape-font-specification:'Arial Rounded MT Bold, '"
         id="path331" /></g><g
       aria-label="DAW"
       id="text241"
       style="font-style:italic;font-weight:900;font-stretch:condensed;font-size:17.6389px;font-family:'Avenir Next Condensed';-inkscape-font-specification:'Avenir Next Condensed,  Heavy Italic Condensed';fill:#ffffff;stroke-width:0.264583"
       transform="matrix(1.0378388,0,0,1.0378388,-66.789755,-133.71342)"><path
         d="m 72.292158,150.95805 h 0.881945 v -0.88194 h 0.881945 v -5.29167 h -0.881945 v -0.88195 h -0.881945 v -0.88194 h -1.76389 -0.881945 -5.291671 V 151.84 h 7.937506 z m -2.645835,-5.29167 h 0.881945 v 3.52778 h -0.881945 v 0.88195 h -1.76389 v -5.29167 h 1.76389 z"
         style="font-weight:bold;font-stretch:normal;font-family:'Upheaval TT (BRK)';-inkscape-font-specification:'Upheaval TT (BRK) Bold Italic'"
         id="path334" /><path
         d="m 78.465746,148.31222 h 2.645836 V 151.84 h 3.52778 v -7.93751 h -0.881945 v -0.88194 h -2.645835 -5.291671 v 0.88194 H 74.937966 V 151.84 h 3.52778 z m 0,-3.52778 h 2.645836 v 1.76389 h -2.645836 z"
         style="font-weight:bold;font-stretch:normal;font-family:'Upheaval TT (BRK)';-inkscape-font-specification:'Upheaval TT (BRK) Bold Italic'"
         id="path336" /><path
         d="m 89.04906,150.95805 h 0.881945 v -0.88194 h 0.881946 v -0.88195 h 0.881945 v 0.88195 h 0.881945 v 0.88194 h 0.881945 V 151.84 h 3.52778 v -8.81945 h -3.52778 v 4.40972 h -0.881945 v -0.88194 h -0.881945 v -0.88195 h -0.881945 v 0.88195 h -0.881946 v 0.88194 H 89.04906 v -4.40972 H 85.52128 V 151.84 h 3.52778 z"
         style="font-weight:bold;font-stretch:normal;font-family:'Upheaval TT (BRK)';-inkscape-font-specification:'Upheaval TT (BRK) Bold Italic'"
         id="path338" /></g></g></svg>
